<?xml version="1.0" encoding="utf-8"?>
<!DOCTYPE svg PUBLIC "-//W3C//DTD SVG 20010904//EN" "http://www.w3.org/TR/2001/REC-SVG-20010904/DTD/svg10.dtd">
<svg version="1.0" xmlns="http://www.w3.org/2000/svg" width="60px" height="56px" viewBox="0 0 60 56" preserveAspectRatio="xMidYMid meet">
 <g fill="#dc534b">
  <path d="M1.2 54.8 c-0.7 -0.7 -1.2 -1.9 -1.2 -2.7 0.1 -0.9 5.8 -12.8 12.8 -26.6 l12.7 -25 4.5 0 4.5 0 13 25.7 c10.7 21.2 12.8 26.1 11.9 27.5 -1 1.6 -3.7 1.8 -29 2.1 -20.9 0.2 -28.3 -0.1 -29.2 -1z m38.6 -25.3 c-5.1 -10.2 -9.5 -18.5 -9.8 -18.5 -0.3 0 -4.7 8.3 -9.8 18.5 l-9.2 18.5 19 0 19 0 -9.2 -18.5z"/>
  <path d="M27 44.5 c-2.6 -3.2 1.3 -8.1 4.8 -5.9 2.2 1.4 2.7 4.1 1.2 5.9 -1.6 1.9 -4.4 1.9 -6 0z"/>
  <path d="M27.1 34.6 c-1.9 -2.2 -1 -12.6 1.2 -14 3.2 -2 5.2 0.4 5.5 6.8 0.3 6.1 -0.8 8.6 -3.8 8.6 -1 0 -2.3 -0.6 -2.9 -1.4z"/>
 </g>
</svg>